<svg width="444" height="534" viewBox="0 0 444 534" fill="none" xmlns="http://www.w3.org/2000/svg">
<g filter="url(#filter0_f_532_28410)">
<g clip-path="url(#clip0_532_28410)">
<rect x="-0.0634766" y="39" width="412.768" height="514.33" rx="26.0892" transform="rotate(10.6368 -0.0634766 39)" fill="#30C1C9"/>
<rect x="-0.0634766" y="39" width="412.768" height="514.33" rx="26.0892" transform="rotate(10.6368 -0.0634766 39)" fill="#0F0C15"/>
<rect x="44.2002" y="166.767" width="280.459" height="280.459" rx="140.229" transform="rotate(10.6368 44.2002 166.767)" fill="url(#paint0_linear_532_28410)"/>
<g filter="url(#filter1_dd_532_28410)">
<path d="M170.979 251.443C215.636 259.83 245.039 302.831 236.652 347.488C228.264 392.145 185.264 421.547 140.607 413.161C95.9502 404.774 66.5471 361.773 74.9339 317.116C83.3211 272.459 126.322 243.056 170.979 251.443Z" fill="#0C150D"/>
</g>
<path opacity="0.2" d="M120.515 358.472C119.882 358.353 119.319 358.128 118.824 357.796C118.339 357.457 117.939 357.041 117.624 356.548C117.311 356.047 117.102 355.49 116.996 354.877C116.891 354.256 116.904 353.599 117.034 352.907C117.164 352.215 117.39 351.602 117.711 351.07C118.034 350.529 118.427 350.085 118.89 349.738C119.363 349.385 119.887 349.142 120.46 349.011C121.043 348.873 121.651 348.863 122.284 348.982C122.976 349.112 123.569 349.37 124.063 349.754C124.566 350.141 124.944 350.623 125.198 351.202C125.461 351.782 125.571 352.422 125.528 353.122L124.477 352.924C124.517 352.145 124.326 351.489 123.904 350.959C123.491 350.421 122.896 350.079 122.119 349.933C121.46 349.81 120.853 349.864 120.296 350.095C119.741 350.318 119.273 350.691 118.892 351.212C118.513 351.725 118.252 352.357 118.111 353.109C117.97 353.861 117.982 354.549 118.148 355.173C118.316 355.789 118.617 356.306 119.051 356.724C119.488 357.133 120.031 357.399 120.68 357.521C121.475 357.67 122.166 357.57 122.754 357.22C123.35 356.872 123.766 356.33 124.002 355.596L125.053 355.793C124.839 356.461 124.504 357.018 124.049 357.463C123.602 357.91 123.075 358.222 122.466 358.4C121.866 358.579 121.216 358.603 120.515 358.472ZM128.839 360.035C128.198 359.915 127.662 359.659 127.231 359.268C126.8 358.878 126.496 358.4 126.319 357.836C126.152 357.265 126.129 356.655 126.251 356.005C126.375 355.347 126.621 354.792 126.989 354.339C127.357 353.886 127.808 353.559 128.341 353.358C128.883 353.159 129.474 353.12 130.115 353.24C130.765 353.362 131.302 353.613 131.726 353.994C132.158 354.376 132.46 354.844 132.63 355.398C132.809 355.954 132.836 356.561 132.713 357.219C132.591 357.868 132.344 358.428 131.973 358.898C131.611 359.361 131.159 359.696 130.616 359.904C130.081 360.113 129.489 360.157 128.839 360.035ZM129.003 359.163C129.447 359.247 129.852 359.212 130.217 359.059C130.583 358.898 130.892 358.642 131.144 358.291C131.396 357.94 131.569 357.513 131.664 357.008C131.805 356.256 131.717 355.616 131.401 355.088C131.093 354.561 130.61 354.236 129.951 354.112C129.302 353.99 128.734 354.118 128.247 354.495C127.76 354.873 127.446 355.438 127.305 356.19C127.21 356.694 127.216 357.155 127.324 357.574C127.431 357.992 127.626 358.343 127.909 358.626C128.202 358.902 128.567 359.081 129.003 359.163ZM133.76 360.827L134.988 354.288L135.95 354.469L135.661 356.007L135.725 356.019L134.786 361.019L133.76 360.827ZM138.44 361.705L139.244 357.423C139.337 356.928 139.283 356.533 139.082 356.238C138.88 355.944 138.536 355.751 138.049 355.659C137.622 355.579 137.224 355.602 136.855 355.727C136.495 355.854 136.189 356.067 135.939 356.365C135.697 356.664 135.534 357.036 135.45 357.481L135.575 355.898C135.889 355.453 136.299 355.131 136.805 354.935C137.319 354.739 137.867 354.696 138.448 354.805C139.132 354.934 139.642 355.233 139.978 355.703C140.325 356.166 140.439 356.714 140.32 357.347L139.465 361.898L138.44 361.705ZM141.563 362.292L142.791 355.754L143.753 355.934L143.464 357.473L143.528 357.485L142.589 362.485L141.563 362.292ZM146.243 363.171L147.047 358.889C147.14 358.393 147.086 357.998 146.885 357.704C146.683 357.409 146.339 357.216 145.852 357.125C145.425 357.044 145.027 357.067 144.658 357.193C144.298 357.32 143.992 357.532 143.742 357.83C143.5 358.13 143.337 358.502 143.253 358.946L143.378 357.364C143.692 356.918 144.102 356.597 144.608 356.4C145.122 356.205 145.67 356.162 146.251 356.271C146.935 356.399 147.445 356.698 147.781 357.169C148.128 357.632 148.242 358.18 148.123 358.812L147.268 363.363L146.243 363.171ZM152.022 364.389C151.398 364.272 150.874 364.023 150.45 363.642C150.027 363.253 149.727 362.777 149.55 362.213C149.373 361.648 149.347 361.033 149.472 360.366C149.597 359.7 149.84 359.139 150.199 358.685C150.569 358.223 151.024 357.897 151.564 357.707C152.105 357.516 152.691 357.48 153.323 357.599C153.93 357.713 154.431 357.944 154.826 358.292C155.229 358.643 155.505 359.079 155.655 359.603C155.813 360.128 155.831 360.715 155.709 361.365C155.693 361.45 155.673 361.531 155.65 361.606C155.636 361.683 155.611 361.767 155.576 361.858L150.179 360.844L150.34 359.985L155.109 360.881L154.687 361.293C154.835 360.506 154.773 359.871 154.501 359.386C154.239 358.895 153.792 358.589 153.16 358.471C152.51 358.349 151.942 358.476 151.455 358.854C150.978 359.225 150.669 359.79 150.526 360.551C150.38 361.329 150.459 361.99 150.764 362.533C151.079 363.07 151.57 363.402 152.237 363.527C152.655 363.605 153.04 363.585 153.39 363.465C153.741 363.336 154.022 363.114 154.231 362.8L155.206 362.983C154.88 363.541 154.432 363.948 153.861 364.204C153.302 364.452 152.688 364.514 152.022 364.389ZM159.297 365.755C158.698 365.643 158.191 365.397 157.776 365.018C157.371 364.633 157.079 364.158 156.902 363.593C156.735 363.022 156.713 362.408 156.837 361.749C156.961 361.091 157.202 360.535 157.562 360.081C157.93 359.628 158.372 359.299 158.888 359.095C159.413 358.893 159.97 358.847 160.56 358.958C161.047 359.049 161.465 359.225 161.815 359.486C162.172 359.747 162.442 360.077 162.624 360.474C162.817 360.864 162.904 361.296 162.885 361.771L161.937 361.592C161.93 361.157 161.797 360.779 161.539 360.456C161.282 360.133 160.909 359.926 160.422 359.835C160.003 359.756 159.62 359.79 159.274 359.938C158.928 360.085 158.634 360.331 158.393 360.675C158.151 361.019 157.983 361.443 157.888 361.947C157.793 362.451 157.795 362.912 157.894 363.328C157.993 363.745 158.176 364.089 158.444 364.361C158.72 364.634 159.067 364.81 159.486 364.888C159.956 364.977 160.373 364.922 160.738 364.725C161.104 364.52 161.369 364.215 161.533 363.813L162.482 363.991C162.32 364.429 162.073 364.799 161.742 365.1C161.422 365.393 161.052 365.598 160.632 365.714C160.212 365.83 159.767 365.844 159.297 365.755ZM166.264 367.05C165.537 366.914 165.038 366.652 164.765 366.265C164.503 365.87 164.431 365.361 164.548 364.737L165.723 358.481L166.821 358.289L165.576 364.917C165.507 365.285 165.55 365.572 165.706 365.778C165.862 365.984 166.154 366.127 166.581 366.208C166.752 366.24 166.899 366.258 167.022 366.264C167.155 366.262 167.263 366.252 167.347 366.232L167.183 367.104C167.091 367.122 166.962 367.124 166.797 367.111C166.638 367.107 166.46 367.087 166.264 367.05ZM163.927 360.626L164.09 359.754L168.411 360.565L168.247 361.437L163.927 360.626ZM171.149 367.981C170.525 367.864 170.001 367.615 169.577 367.235C169.154 366.846 168.854 366.369 168.677 365.805C168.5 365.241 168.474 364.625 168.599 363.959C168.724 363.292 168.967 362.731 169.326 362.277C169.696 361.815 170.151 361.489 170.691 361.299C171.232 361.108 171.818 361.072 172.45 361.191C173.057 361.305 173.558 361.536 173.953 361.885C174.356 362.235 174.632 362.672 174.782 363.195C174.94 363.72 174.958 364.308 174.836 364.957C174.82 365.043 174.8 365.123 174.777 365.198C174.763 365.275 174.738 365.359 174.703 365.45L169.306 364.436L169.467 363.577L174.236 364.473L173.814 364.885C173.962 364.099 173.9 363.463 173.628 362.978C173.366 362.487 172.919 362.182 172.287 362.063C171.637 361.941 171.069 362.069 170.582 362.446C170.105 362.817 169.796 363.382 169.653 364.143C169.507 364.921 169.586 365.582 169.891 366.126C170.206 366.663 170.697 366.994 171.364 367.119C171.782 367.198 172.167 367.177 172.517 367.057C172.868 366.928 173.149 366.707 173.358 366.392L174.333 366.575C174.007 367.133 173.559 367.54 172.988 367.796C172.429 368.045 171.815 368.106 171.149 367.981ZM180.614 369.626L180.901 368.101L181.022 368.163C180.766 368.628 180.393 368.965 179.903 369.174C179.421 369.384 178.881 369.433 178.283 369.321C177.693 369.21 177.202 368.972 176.811 368.607C176.428 368.243 176.16 367.785 176.007 367.234C175.862 366.685 175.853 366.073 175.98 365.398C176.108 364.714 176.345 364.139 176.689 363.673C177.033 363.207 177.454 362.874 177.951 362.676C178.449 362.477 178.996 362.434 179.595 362.546C180.21 362.662 180.699 362.908 181.062 363.286C181.424 363.664 181.631 364.141 181.682 364.717L181.472 364.704L182.284 360.383L183.309 360.576L181.576 369.807L180.614 369.626ZM178.643 368.46C179.302 368.583 179.856 368.457 180.307 368.082C180.768 367.7 181.072 367.12 181.218 366.342C181.361 365.581 181.286 364.943 180.993 364.428C180.701 363.913 180.23 363.595 179.58 363.473C178.93 363.351 178.38 363.477 177.929 363.853C177.478 364.228 177.179 364.809 177.031 365.595C176.887 366.364 176.957 367.006 177.241 367.519C177.526 368.024 177.994 368.338 178.643 368.46Z" fill="white"/>
<path fill-rule="evenodd" clip-rule="evenodd" d="M236.54 -97.6406C473.991 -53.0449 630.331 175.599 585.736 413.05C541.14 650.5 312.496 806.841 75.0454 762.245C-162.405 717.649 -318.745 489.006 -274.15 251.555C-229.554 14.1038 -0.910446 -142.236 236.54 -97.6406ZM179.407 206.571C109.968 193.53 43.1044 239.25 30.0629 308.689L29.7685 310.316C17.8327 378.627 62.5696 444.055 130.556 457.717L132.18 458.032C201.077 470.971 267.438 426.065 281.209 357.539L281.524 355.916C294.463 287.019 249.557 220.658 181.03 206.887L179.407 206.571Z" fill="url(#paint1_linear_532_28410)"/>
<g clip-path="url(#clip1_532_28410)">
<path d="M161.353 300.165L158.515 315.275M171.2 306.603C172.915 309.113 173.848 312.076 173.881 315.116C173.913 318.156 173.043 321.138 171.38 323.684C169.718 326.229 167.338 328.225 164.542 329.419C161.745 330.612 158.658 330.949 155.67 330.388C152.681 329.827 149.927 328.392 147.754 326.266C145.581 324.139 144.087 321.416 143.462 318.44C142.837 315.465 143.108 312.371 144.241 309.549C145.374 306.728 147.318 304.306 149.828 302.589" stroke="#D0FCE9" stroke-width="4.94795" stroke-linecap="round" stroke-linejoin="round"/>
</g>
<path d="M26.0589 513.352L27.0309 508.176L23.8208 500.645L25.9307 501.041L28.5971 507.651L27.6905 507.481L32.5735 502.289L34.502 502.651L28.7782 508.504L27.8061 513.68L26.0589 513.352ZM35.933 515.377C35.0759 515.216 34.3582 514.888 33.78 514.392C33.2039 513.886 32.7965 513.269 32.5577 512.542C32.3209 511.803 32.282 511.011 32.4409 510.165C32.6019 509.308 32.9246 508.589 33.409 508.009C33.9044 507.43 34.5048 507.02 35.2103 506.777C35.9288 506.525 36.7166 506.48 37.5738 506.641C38.4419 506.804 39.165 507.133 39.7432 507.628C40.3235 508.113 40.7285 508.712 40.9584 509.427C41.1993 510.143 41.2392 510.93 41.0782 511.787C40.9193 512.633 40.5956 513.357 40.1071 513.959C39.6316 514.553 39.0336 514.981 38.313 515.244C37.5945 515.496 36.8011 515.54 35.933 515.377ZM36.1962 513.976C36.7126 514.073 37.1814 514.03 37.6025 513.847C38.0346 513.667 38.4028 513.372 38.7072 512.963C39.0116 512.554 39.2206 512.047 39.3341 511.442C39.5033 510.541 39.3947 509.787 39.0082 509.18C38.6347 508.563 38.0689 508.184 37.3106 508.042C36.5634 507.901 35.8985 508.05 35.3159 508.486C34.7443 508.925 34.3749 509.589 34.2077 510.48C34.0942 511.084 34.0996 511.631 34.2237 512.121C34.3589 512.613 34.5951 513.021 34.9322 513.346C35.2803 513.673 35.7017 513.883 36.1962 513.976ZM44.9135 517.064C44.3531 516.958 43.8803 516.75 43.495 516.439C43.1119 516.117 42.8386 515.724 42.6753 515.261C42.5229 514.8 42.4973 514.3 42.5985 513.762L43.6882 507.96L45.4024 508.282L44.387 513.688C44.2777 514.271 44.339 514.732 44.571 515.071C44.8031 515.41 45.1829 515.629 45.7103 515.729C46.1828 515.817 46.6211 515.786 47.025 515.634C47.4399 515.485 47.7878 515.237 48.0689 514.892C48.3629 514.537 48.5585 514.102 48.6555 513.585L48.4921 515.637C48.1018 516.2 47.5858 516.615 46.9442 516.882C46.3157 517.139 45.6388 517.2 44.9135 517.064ZM47.9939 517.471L48.3654 515.493L48.2995 515.481L49.5068 509.052L51.2046 509.371L49.6258 517.778L47.9939 517.471ZM52.1923 518.26L53.7711 509.853L55.403 510.16L55.0098 512.253L55.0922 512.269L53.9066 518.582L52.1923 518.26ZM54.73 514.197L54.8903 512.163C55.2223 511.485 55.6651 511.005 56.2188 510.723C56.7725 510.44 57.3845 510.361 58.0548 510.487C58.3076 510.535 58.4793 510.59 58.5699 510.652L58.2665 512.268C58.2157 512.235 58.1408 512.21 58.0419 512.191C57.9451 512.162 57.8253 512.134 57.6824 512.107C56.8582 511.952 56.1971 512.05 55.699 512.4C55.212 512.752 54.889 513.351 54.73 514.197ZM68.1495 521.257L68.5117 519.328L68.6673 519.409C68.3738 520.002 67.9173 520.434 67.2977 520.704C66.6801 520.964 65.9867 521.021 65.2175 520.877C64.4593 520.734 63.8285 520.428 63.3252 519.958C62.8328 519.49 62.4882 518.902 62.2913 518.194C62.1054 517.488 62.0939 516.701 62.257 515.833C62.4221 514.954 62.7259 514.214 63.1684 513.615C63.6109 513.015 64.1519 512.588 64.7915 512.333C65.431 512.077 66.1354 512.022 66.9046 512.166C67.7068 512.317 68.33 512.633 68.7743 513.115C69.2316 513.587 69.4787 514.18 69.5155 514.892L69.2786 514.882L70.3125 509.376L72.0103 509.695L69.7814 521.563L68.1495 521.257ZM65.9154 519.523C66.6736 519.666 67.321 519.52 67.8576 519.086C68.3962 518.641 68.7522 517.957 68.9256 517.034C69.0948 516.133 69.0026 515.382 68.6491 514.781C68.3086 514.171 67.7592 513.794 67.001 513.652C66.2538 513.512 65.6108 513.664 65.0722 514.109C64.5466 514.545 64.1961 515.23 64.0207 516.164C63.8494 517.076 63.9295 517.831 64.2611 518.428C64.6057 519.016 65.1572 519.381 65.9154 519.523ZM75.9528 522.893C75.1067 522.734 74.3945 522.407 73.8164 521.912C73.2492 521.418 72.8462 520.808 72.6074 520.08C72.3686 519.353 72.3296 518.561 72.4906 517.704C72.6537 516.835 72.9719 516.11 73.4453 515.528C73.9318 514.937 74.5332 514.521 75.2497 514.28C75.9661 514.039 76.742 513.997 77.5771 514.154C78.3903 514.306 79.0606 514.614 79.5879 515.077C80.1283 515.532 80.5001 516.096 80.7032 516.772C80.9173 517.449 80.9449 518.211 80.786 519.057C80.7612 519.189 80.732 519.314 80.6983 519.433C80.6776 519.543 80.645 519.656 80.6003 519.773L73.5454 518.448L73.7869 517.162L79.6385 518.261L79.1139 518.691C79.2832 517.79 79.2089 517.065 78.891 516.517C78.5732 515.968 78.0516 515.625 77.3264 515.489C76.5461 515.342 75.8747 515.495 75.312 515.947C74.7624 516.39 74.3989 517.084 74.2214 518.029C74.0418 518.985 74.1268 519.774 74.4762 520.397C74.8366 521.022 75.4234 521.411 76.2366 521.564C76.7311 521.657 77.1782 521.639 77.578 521.509C77.9798 521.368 78.3058 521.117 78.556 520.754L80.1713 521.057C79.748 521.797 79.1644 522.33 78.4204 522.657C77.6875 522.986 76.8649 523.064 75.9528 522.893ZM84.072 524.247L82.2223 515.197L84.052 515.54L85.4208 523.699L84.6131 523.547L88.8157 516.435L90.5794 516.766L85.5885 524.532L84.072 524.247ZM90.4422 525.444L92.021 517.037L93.7353 517.359L92.1565 525.766L90.4422 525.444ZM92.2482 515.373L92.6104 513.445L94.506 513.801L94.1438 515.729L92.2482 515.373ZM98.1592 527.064C97.357 526.913 96.6779 526.592 96.1217 526.101C95.5675 525.598 95.171 524.984 94.9322 524.256C94.7044 523.531 94.67 522.745 94.8289 521.899C94.9878 521.053 95.304 520.339 95.7774 519.756C96.2638 519.165 96.8553 518.741 97.5519 518.485C98.2484 518.229 98.9923 518.176 99.7835 518.324C100.454 518.45 101.029 518.689 101.509 519.041C101.989 519.393 102.357 519.826 102.613 520.34C102.869 520.855 102.989 521.429 102.972 522.063L101.357 521.76C101.34 521.245 101.172 520.804 100.854 520.437C100.547 520.072 100.114 519.837 99.5533 519.732C99.0698 519.641 98.624 519.682 98.216 519.856C97.808 520.029 97.4638 520.318 97.1834 520.72C96.9031 521.122 96.7061 521.626 96.5926 522.23C96.4812 522.824 96.482 523.364 96.5952 523.852C96.7084 524.339 96.9226 524.744 97.2377 525.065C97.555 525.374 97.9608 525.576 98.4553 525.669C98.9938 525.77 99.4767 525.713 99.904 525.497C100.344 525.273 100.666 524.923 100.869 524.45L102.484 524.753C102.261 525.337 101.931 525.821 101.494 526.205C101.069 526.592 100.569 526.862 99.9942 527.016C99.4192 527.169 98.8076 527.185 98.1592 527.064ZM107.374 528.794C106.528 528.635 105.815 528.308 105.237 527.813C104.67 527.319 104.267 526.709 104.028 525.982C103.789 525.254 103.751 524.462 103.912 523.605C104.075 522.737 104.393 522.011 104.866 521.429C105.353 520.838 105.954 520.422 106.671 520.181C107.387 519.94 108.163 519.898 108.998 520.055C109.811 520.208 110.481 520.515 111.009 520.979C111.549 521.433 111.921 521.997 112.124 522.673C112.338 523.35 112.366 524.112 112.207 524.958C112.182 525.09 112.153 525.215 112.119 525.334C112.099 525.444 112.066 525.557 112.021 525.674L104.966 524.349L105.208 523.063L111.059 524.162L110.535 524.593C110.704 523.692 110.63 522.967 110.312 522.418C109.994 521.869 109.473 521.526 108.747 521.39C107.967 521.243 107.296 521.396 106.733 521.848C106.183 522.291 105.82 522.985 105.642 523.93C105.463 524.886 105.548 525.675 105.897 526.298C106.257 526.924 106.844 527.312 107.657 527.465C108.152 527.558 108.599 527.54 108.999 527.41C109.401 527.269 109.727 527.018 109.977 526.655L111.592 526.958C111.169 527.698 110.585 528.231 109.841 528.558C109.108 528.887 108.286 528.965 107.374 528.794ZM116.712 530.377L118.291 521.971L120.005 522.293L118.426 530.699L116.712 530.377ZM118.518 520.307L118.88 518.378L120.776 518.734L120.414 520.663L118.518 520.307ZM123.984 531.914C122.885 531.707 122.057 531.301 121.499 530.696C120.941 530.091 120.701 529.34 120.778 528.445L122.361 528.742C122.347 529.24 122.497 529.655 122.81 529.987C123.136 530.31 123.618 530.531 124.255 530.651C124.815 530.756 125.263 530.737 125.596 530.595C125.93 530.453 126.131 530.201 126.199 529.838C126.249 529.575 126.202 529.338 126.059 529.129C125.93 528.912 125.629 528.696 125.157 528.482L123.864 527.915C123.057 527.547 122.483 527.121 122.142 526.636C121.814 526.142 121.707 525.593 121.82 524.989C121.962 524.23 122.354 523.69 122.995 523.366C123.649 523.034 124.471 522.961 125.46 523.147C126.438 523.33 127.182 523.698 127.693 524.249C128.215 524.802 128.44 525.481 128.368 526.287L126.786 525.989C126.794 525.581 126.658 525.243 126.379 524.974C126.113 524.697 125.71 524.508 125.172 524.406C124.666 524.312 124.259 524.332 123.949 524.467C123.652 524.593 123.474 524.816 123.414 525.134C123.364 525.398 123.422 525.636 123.587 525.849C123.762 526.064 124.075 526.277 124.525 526.486L125.845 527.093C126.61 527.441 127.153 527.879 127.475 528.406C127.799 528.922 127.902 529.493 127.785 530.119C127.642 530.877 127.234 531.415 126.56 531.732C125.897 532.051 125.039 532.112 123.984 531.914ZM135.995 534.169C135.192 534.019 134.513 533.698 133.957 533.207C133.403 532.704 133.006 532.089 132.768 531.362C132.54 530.637 132.505 529.851 132.664 529.005C132.823 528.159 133.139 527.444 133.613 526.862C134.099 526.271 134.691 525.847 135.387 525.591C136.084 525.335 136.828 525.282 137.619 525.43C138.289 525.556 138.864 525.795 139.344 526.147C139.824 526.498 140.192 526.932 140.448 527.446C140.704 527.961 140.824 528.535 140.807 529.169L139.192 528.866C139.175 528.35 139.008 527.909 138.69 527.543C138.383 527.178 137.949 526.943 137.389 526.837C136.905 526.747 136.459 526.788 136.051 526.962C135.643 527.135 135.299 527.423 135.019 527.826C134.738 528.228 134.541 528.732 134.428 529.336C134.316 529.929 134.317 530.47 134.43 530.958C134.544 531.445 134.758 531.85 135.073 532.17C135.39 532.48 135.796 532.682 136.291 532.775C136.829 532.876 137.312 532.818 137.739 532.603C138.18 532.378 138.501 532.029 138.704 531.555L140.319 531.859C140.096 532.443 139.766 532.927 139.33 533.311C138.904 533.698 138.404 533.968 137.829 534.122C137.254 534.275 136.643 534.291 135.995 534.169ZM145.242 535.906C144.385 535.745 143.667 535.417 143.089 534.922C142.513 534.415 142.105 533.798 141.867 533.071C141.63 532.332 141.591 531.54 141.75 530.694C141.911 529.837 142.234 529.118 142.718 528.538C143.213 527.96 143.814 527.549 144.519 527.306C145.238 527.054 146.026 527.009 146.883 527.17C147.751 527.333 148.474 527.662 149.052 528.158C149.632 528.642 150.037 529.241 150.267 529.956C150.508 530.672 150.548 531.459 150.387 532.316C150.228 533.162 149.905 533.887 149.416 534.489C148.941 535.082 148.343 535.51 147.622 535.773C146.903 536.025 146.11 536.069 145.242 535.906ZM145.505 534.505C146.022 534.602 146.49 534.559 146.911 534.377C147.344 534.196 147.712 533.901 148.016 533.492C148.321 533.083 148.53 532.576 148.643 531.972C148.812 531.07 148.704 530.316 148.317 529.709C147.944 529.093 147.378 528.713 146.62 528.571C145.872 528.431 145.207 528.579 144.625 529.016C144.053 529.454 143.684 530.119 143.517 531.009C143.403 531.613 143.409 532.16 143.533 532.65C143.668 533.142 143.904 533.55 144.241 533.875C144.589 534.202 145.011 534.412 145.505 534.505ZM151.517 536.914L153.096 528.508L154.728 528.814L154.356 530.792L154.439 530.808L153.231 537.236L151.517 536.914ZM157.484 538.035L158.5 532.628C158.609 532.046 158.542 531.584 158.299 531.242C158.067 530.903 157.665 530.68 157.094 530.572C156.599 530.48 156.139 530.507 155.713 530.654C155.298 530.804 154.945 531.05 154.653 531.394C154.372 531.739 154.182 532.176 154.083 532.703L154.246 530.652C154.639 530.077 155.154 529.662 155.794 529.407C156.434 529.151 157.132 529.095 157.891 529.237C158.792 529.407 159.453 529.792 159.875 530.395C160.296 530.997 160.429 531.716 160.272 532.551L159.182 538.354L157.484 538.035ZM161.678 538.822L163.257 530.416L164.889 530.722L164.518 532.7L164.6 532.716L163.393 539.144L161.678 538.822ZM167.645 539.943L168.661 534.537C168.77 533.954 168.703 533.492 168.46 533.151C168.228 532.811 167.826 532.588 167.255 532.481C166.76 532.388 166.3 532.415 165.874 532.563C165.46 532.712 165.106 532.959 164.814 533.302C164.533 533.648 164.343 534.084 164.244 534.611L164.407 532.56C164.8 531.985 165.316 531.57 165.955 531.315C166.595 531.06 167.294 531.003 168.052 531.146C168.953 531.315 169.614 531.701 170.036 532.303C170.457 532.906 170.59 533.625 170.433 534.46L169.343 540.262L167.645 539.943ZM175.435 541.577C174.589 541.418 173.877 541.091 173.298 540.595C172.731 540.102 172.328 539.492 172.089 538.764C171.851 538.037 171.812 537.244 171.973 536.387C172.136 535.519 172.454 534.794 172.927 534.212C173.414 533.62 174.015 533.204 174.732 532.963C175.448 532.723 176.224 532.681 177.059 532.837C177.872 532.99 178.543 533.298 179.07 533.761C179.61 534.215 179.982 534.78 180.185 535.455C180.399 536.133 180.427 536.894 180.268 537.74C180.243 537.872 180.214 537.998 180.18 538.116C180.16 538.226 180.127 538.34 180.082 538.456L173.027 537.131L173.269 535.846L179.12 536.945L178.596 537.375C178.765 536.474 178.691 535.749 178.373 535.2C178.055 534.651 177.534 534.309 176.808 534.173C176.028 534.026 175.357 534.179 174.794 534.63C174.244 535.073 173.881 535.767 173.703 536.712C173.524 537.668 173.609 538.458 173.958 539.081C174.319 539.706 174.905 540.095 175.719 540.248C176.213 540.341 176.66 540.322 177.06 540.193C177.462 540.052 177.788 539.8 178.038 539.438L179.653 539.741C179.23 540.481 178.646 541.014 177.902 541.341C177.169 541.669 176.347 541.748 175.435 541.577ZM184.869 543.348C184.066 543.198 183.387 542.877 182.831 542.386C182.277 541.883 181.88 541.268 181.642 540.541C181.414 539.816 181.379 539.03 181.538 538.184C181.697 537.338 182.013 536.623 182.487 536.041C182.973 535.45 183.565 535.026 184.261 534.77C184.958 534.514 185.702 534.461 186.493 534.609C187.163 534.735 187.738 534.974 188.218 535.326C188.698 535.678 189.066 536.111 189.322 536.625C189.578 537.14 189.698 537.714 189.681 538.348L188.066 538.045C188.049 537.529 187.882 537.088 187.564 536.722C187.257 536.357 186.823 536.122 186.263 536.016C185.779 535.926 185.333 535.967 184.925 536.141C184.517 536.314 184.173 536.602 183.893 537.005C183.612 537.407 183.415 537.911 183.302 538.515C183.19 539.108 183.191 539.649 183.304 540.137C183.418 540.624 183.632 541.029 183.947 541.349C184.264 541.659 184.67 541.861 185.165 541.954C185.703 542.055 186.186 541.997 186.613 541.782C187.054 541.557 187.375 541.208 187.578 540.734L189.193 541.038C188.97 541.622 188.64 542.106 188.204 542.49C187.778 542.877 187.278 543.147 186.703 543.301C186.128 543.454 185.517 543.47 184.869 543.348ZM194.001 545.064C193.023 544.88 192.346 544.52 191.969 543.982C191.605 543.436 191.507 542.718 191.674 541.828L193.138 534.031L194.957 533.707L193.369 542.163C193.286 542.603 193.341 542.949 193.532 543.201C193.724 543.453 194.078 543.628 194.594 543.725C194.792 543.762 194.971 543.778 195.131 543.774C195.291 543.77 195.43 543.756 195.548 543.733L195.288 545.118C195.157 545.15 194.978 545.162 194.752 545.154C194.526 545.145 194.276 545.115 194.001 545.064ZM190.838 537.012L191.095 535.644L196.864 536.728L196.607 538.096L190.838 537.012ZM200.461 546.277C199.615 546.118 198.903 545.791 198.325 545.295C197.758 544.802 197.355 544.192 197.116 543.464C196.877 542.737 196.838 541.945 196.999 541.087C197.162 540.219 197.48 539.494 197.954 538.912C198.44 538.321 199.042 537.905 199.758 537.664C200.475 537.423 201.25 537.381 202.086 537.538C202.899 537.69 203.569 537.998 204.096 538.461C204.637 538.916 205.009 539.48 205.212 540.155C205.426 540.833 205.453 541.594 205.294 542.441C205.27 542.572 205.24 542.698 205.207 542.817C205.186 542.927 205.153 543.04 205.109 543.157L198.054 541.832L198.295 540.546L204.147 541.645L203.622 542.075C203.792 541.174 203.717 540.449 203.4 539.9C203.082 539.352 202.56 539.009 201.835 538.873C201.055 538.726 200.383 538.879 199.821 539.331C199.271 539.774 198.907 540.467 198.73 541.413C198.55 542.369 198.635 543.158 198.985 543.781C199.345 544.406 199.932 544.795 200.745 544.948C201.24 545.041 201.687 545.022 202.086 544.893C202.488 544.752 202.814 544.5 203.064 544.138L204.68 544.441C204.256 545.181 203.673 545.714 202.929 546.041C202.196 546.37 201.373 546.448 200.461 546.277ZM212.497 548.367L212.86 546.438L213.015 546.519C212.722 547.112 212.265 547.544 211.645 547.814C211.028 548.074 210.335 548.131 209.565 547.987C208.807 547.844 208.176 547.538 207.673 547.068C207.181 546.6 206.836 546.012 206.639 545.304C206.453 544.598 206.442 543.811 206.605 542.943C206.77 542.064 207.074 541.324 207.516 540.725C207.959 540.125 208.5 539.698 209.139 539.443C209.779 539.187 210.483 539.132 211.252 539.276C212.055 539.427 212.678 539.743 213.122 540.225C213.579 540.697 213.826 541.29 213.863 542.002L213.626 541.992L214.66 536.486L216.358 536.805L214.129 548.673L212.497 548.367ZM210.263 546.633C211.021 546.776 211.669 546.63 212.205 546.196C212.744 545.751 213.1 545.067 213.273 544.144C213.443 543.243 213.35 542.492 212.997 541.891C212.656 541.281 212.107 540.904 211.349 540.762C210.602 540.622 209.959 540.774 209.42 541.219C208.894 541.655 208.544 542.34 208.369 543.274C208.197 544.186 208.277 544.941 208.609 545.538C208.954 546.126 209.505 546.491 210.263 546.633Z" fill="#16B166"/>
<g opacity="0.3" filter="url(#filter2_f_532_28410)">
<rect x="-17.6318" y="-129.948" width="105.186" height="246.171" rx="52.5928" transform="rotate(-3.86764 -17.6318 -129.948)" fill="#E5E6EA" fill-opacity="0.69"/>
</g>
<path d="M37.251 254.072L44.5761 258.915" stroke="#16B166" stroke-width="1.86351" stroke-linecap="round"/>
<path d="M61.6162 226.02L67.4383 232.594" stroke="#16B166" stroke-width="1.86351" stroke-linecap="round"/>
<path d="M92.4082 205.228L96.3305 213.085" stroke="#16B166" stroke-width="1.86351" stroke-linecap="round"/>
<path d="M127.534 193.115L129.289 201.719" stroke="#16B166" stroke-width="1.86351" stroke-linecap="round"/>
<path d="M164.598 190.506L164.066 199.272" stroke="#16B166" stroke-width="1.86351" stroke-linecap="round"/>
<path d="M201.075 197.579L198.293 205.908" stroke="#16B166" stroke-width="1.86351" stroke-linecap="round"/>
<path d="M127.533 193.114L129.288 201.718" stroke="#16B166" stroke-width="1.86351" stroke-linecap="round"/>
<path d="M127.533 193.114L129.288 201.718" stroke="#16B166" stroke-width="1.86351" stroke-linecap="round"/>
<path d="M77.4756 451.298L82.3185 443.973" stroke="#1E1C20" stroke-width="1.86351" stroke-linecap="round"/>
<path d="M49.4219 426.935L55.9956 421.113" stroke="#1E1C20" stroke-width="1.86351" stroke-linecap="round"/>
<path d="M28.6299 396.142L36.4865 392.22" stroke="#1E1C20" stroke-width="1.86351" stroke-linecap="round"/>
<path d="M16.5156 361.017L25.1197 359.262" stroke="#1E1C20" stroke-width="1.86351" stroke-linecap="round"/>
<path d="M13.9082 323.954L22.6734 324.485" stroke="#16B166" stroke-width="1.86351" stroke-linecap="round"/>
<path d="M20.9795 287.478L29.3085 290.26" stroke="#16B166" stroke-width="1.86351" stroke-linecap="round"/>
<path d="M16.5156 361.016L25.1197 359.26" stroke="#1E1C20" stroke-width="1.86351" stroke-linecap="round"/>
<path d="M267.384 406.22L274.709 411.062" stroke="#1E1C20" stroke-width="1.86351" stroke-linecap="round"/>
<path d="M244.526 432.544L250.349 439.118" stroke="#1E1C20" stroke-width="1.86351" stroke-linecap="round"/>
<path d="M215.636 452.057L219.558 459.913" stroke="#1E1C20" stroke-width="1.86351" stroke-linecap="round"/>
<path d="M182.677 463.427L184.432 472.031" stroke="#1E1C20" stroke-width="1.86351" stroke-linecap="round"/>
<path d="M147.901 465.879L147.37 474.644" stroke="#1E1C20" stroke-width="1.86351" stroke-linecap="round"/>
<path d="M113.674 459.247L110.892 467.576" stroke="#1E1C20" stroke-width="1.86351" stroke-linecap="round"/>
<path d="M182.677 463.426L184.432 472.03" stroke="#1E1C20" stroke-width="1.86351" stroke-linecap="round"/>
<path d="M182.677 463.426L184.432 472.03" stroke="#1E1C20" stroke-width="1.86351" stroke-linecap="round"/>
<path d="M229.621 221.166L234.464 213.84" stroke="#16B166" stroke-width="1.86351" stroke-linecap="round"/>
<path d="M255.946 244.022L262.52 238.2" stroke="#16B166" stroke-width="1.86351" stroke-linecap="round"/>
<path d="M275.46 272.915L283.317 268.993" stroke="#16B166" stroke-width="1.86351" stroke-linecap="round"/>
<path d="M286.828 305.873L295.432 304.117" stroke="#16B166" stroke-width="1.86351" stroke-linecap="round"/>
<path d="M289.28 340.65L298.045 341.182" stroke="#16B166" stroke-width="1.86351" stroke-linecap="round"/>
<path d="M282.648 374.877L290.977 377.659" stroke="#16B166" stroke-width="1.86351" stroke-linecap="round"/>
<path d="M286.828 305.873L295.432 304.117" stroke="#16B166" stroke-width="1.86351" stroke-linecap="round"/>
<path d="M37.251 254.072L44.5761 258.915" stroke="#16B166" stroke-width="1.86351" stroke-linecap="round"/>
<path d="M61.6162 226.02L67.4383 232.594" stroke="#16B166" stroke-width="1.86351" stroke-linecap="round"/>
<path d="M92.4082 205.228L96.3305 213.085" stroke="#16B166" stroke-width="1.86351" stroke-linecap="round"/>
<path d="M127.534 193.115L129.289 201.719" stroke="#16B166" stroke-width="1.86351" stroke-linecap="round"/>
<path d="M164.598 190.506L164.066 199.272" stroke="#16B166" stroke-width="1.86351" stroke-linecap="round"/>
<path d="M201.075 197.579L198.293 205.908" stroke="#16B166" stroke-width="1.86351" stroke-linecap="round"/>
<path d="M127.533 193.114L129.288 201.718" stroke="#16B166" stroke-width="1.86351" stroke-linecap="round"/>
<path d="M127.533 193.114L129.288 201.718" stroke="#16B166" stroke-width="1.86351" stroke-linecap="round"/>
<path d="M77.4756 451.298L82.3185 443.973" stroke="#1E1C20" stroke-width="1.86351" stroke-linecap="round"/>
<path d="M49.4219 426.935L55.9956 421.113" stroke="#1E1C20" stroke-width="1.86351" stroke-linecap="round"/>
<path d="M28.6299 396.142L36.4865 392.22" stroke="#1E1C20" stroke-width="1.86351" stroke-linecap="round"/>
<path d="M16.5156 361.017L25.1197 359.262" stroke="#1E1C20" stroke-width="1.86351" stroke-linecap="round"/>
<path d="M13.9082 323.954L22.6734 324.485" stroke="#16B166" stroke-width="1.86351" stroke-linecap="round"/>
<path d="M20.9795 287.478L29.3085 290.26" stroke="#16B166" stroke-width="1.86351" stroke-linecap="round"/>
<path d="M16.5156 361.016L25.1197 359.26" stroke="#253C22" stroke-width="1.86351" stroke-linecap="round"/>
<path d="M267.384 406.22L274.709 411.062" stroke="#253C22" stroke-width="1.86351" stroke-linecap="round"/>
<path d="M244.526 432.544L250.349 439.118" stroke="#1E1C20" stroke-width="1.86351" stroke-linecap="round"/>
<path d="M215.636 452.057L219.558 459.913" stroke="#1E1C20" stroke-width="1.86351" stroke-linecap="round"/>
<path d="M182.677 463.427L184.432 472.031" stroke="#1E1C20" stroke-width="1.86351" stroke-linecap="round"/>
<path d="M147.901 465.879L147.37 474.644" stroke="#1E1C20" stroke-width="1.86351" stroke-linecap="round"/>
<path d="M113.674 459.247L110.892 467.576" stroke="#1E1C20" stroke-width="1.86351" stroke-linecap="round"/>
<path d="M182.677 463.426L184.432 472.03" stroke="#1E1C20" stroke-width="1.86351" stroke-linecap="round"/>
<path d="M182.677 463.426L184.432 472.03" stroke="#1E1C20" stroke-width="1.86351" stroke-linecap="round"/>
<path d="M229.621 221.166L234.464 213.84" stroke="#16B166" stroke-width="1.86351" stroke-linecap="round"/>
<path d="M255.946 244.022L262.52 238.2" stroke="#16B166" stroke-width="1.86351" stroke-linecap="round"/>
<path d="M275.46 272.915L283.317 268.993" stroke="#16B166" stroke-width="1.86351" stroke-linecap="round"/>
<path d="M286.828 305.873L295.432 304.117" stroke="#16B166" stroke-width="1.86351" stroke-linecap="round"/>
<path d="M289.28 340.65L298.045 341.182" stroke="#16B166" stroke-width="1.86351" stroke-linecap="round"/>
<path d="M282.648 374.877L290.977 377.659" stroke="#2C854D" stroke-width="1.86351" stroke-linecap="round"/>
<path d="M286.828 305.873L295.432 304.117" stroke="#16B166" stroke-width="1.86351" stroke-linecap="round"/>
<path d="M28.0225 270.241L35.9171 274.087" stroke="#16B166" stroke-width="1.86351" stroke-linecap="round"/>
<path d="M48.5156 239.248L55.146 245.005" stroke="#16B166" stroke-width="1.86351" stroke-linecap="round"/>
<path d="M76.333 214.616L81.2473 221.893" stroke="#16B166" stroke-width="1.86351" stroke-linecap="round"/>
<path d="M109.577 198.021L112.44 206.323" stroke="#16B166" stroke-width="1.86351" stroke-linecap="round"/>
<path d="M145.984 190.597L146.602 199.357" stroke="#16B166" stroke-width="1.86351" stroke-linecap="round"/>
<path d="M183.071 192.848L181.4 201.469" stroke="#16B166" stroke-width="1.86351" stroke-linecap="round"/>
<path d="M109.575 198.02L112.438 206.321" stroke="#16B166" stroke-width="1.86351" stroke-linecap="round"/>
<path d="M109.575 198.02L112.438 206.321" stroke="#16B166" stroke-width="1.86351" stroke-linecap="round"/>
<path d="M93.6455 460.529L97.4908 452.635" stroke="#1E1C20" stroke-width="1.86351" stroke-linecap="round"/>
<path d="M62.6514 440.037L68.4089 433.406" stroke="#1E1C20" stroke-width="1.86351" stroke-linecap="round"/>
<path d="M38.0195 412.221L45.297 407.307" stroke="#1E1C20" stroke-width="1.86351" stroke-linecap="round"/>
<path d="M21.4248 378.977L29.7262 376.114" stroke="#1E1C20" stroke-width="1.86351" stroke-linecap="round"/>
<path d="M14.001 342.572L22.7606 341.955" stroke="#22682E" stroke-width="1.86351" stroke-linecap="round"/>
<path d="M16.252 305.485L24.8728 307.156" stroke="#16B166" stroke-width="1.86351" stroke-linecap="round"/>
<path d="M21.4248 378.977L29.7262 376.113" stroke="#1E1C20" stroke-width="1.86351" stroke-linecap="round"/>
<path d="M276.045 391.049L283.94 394.894" stroke="#22682E" stroke-width="1.86351" stroke-linecap="round"/>
<path d="M256.819 420.132L263.45 425.889" stroke="#1E1C20" stroke-width="1.86351" stroke-linecap="round"/>
<path d="M230.722 443.248L235.636 450.525" stroke="#1E1C20" stroke-width="1.86351" stroke-linecap="round"/>
<path d="M199.53 458.823L202.394 467.124" stroke="#1E1C20" stroke-width="1.86351" stroke-linecap="round"/>
<path d="M165.372 465.793L165.989 474.552" stroke="#1E1C20" stroke-width="1.86351" stroke-linecap="round"/>
<path d="M130.572 463.685L128.901 472.306" stroke="#1E1C20" stroke-width="1.86351" stroke-linecap="round"/>
<path d="M199.53 458.823L202.394 467.124" stroke="#1E1C20" stroke-width="1.86351" stroke-linecap="round"/>
<path d="M199.53 458.823L202.394 467.124" stroke="#1E1C20" stroke-width="1.86351" stroke-linecap="round"/>
<path d="M214.453 212.507L218.298 204.612" stroke="#16B166" stroke-width="1.86351" stroke-linecap="round"/>
<path d="M243.534 231.732L249.292 225.101" stroke="#16B166" stroke-width="1.86351" stroke-linecap="round"/>
<path d="M266.652 257.83L273.93 252.916" stroke="#16B166" stroke-width="1.86351" stroke-linecap="round"/>
<path d="M282.226 289.021L290.527 286.158" stroke="#16B166" stroke-width="1.86351" stroke-linecap="round"/>
<path d="M289.196 323.182L297.956 322.564" stroke="#16B166" stroke-width="1.86351" stroke-linecap="round"/>
<path d="M287.09 357.982L295.711 359.653" stroke="#16B166" stroke-width="1.86351" stroke-linecap="round"/>
<path d="M282.226 289.021L290.527 286.158" stroke="#16B166" stroke-width="1.86351" stroke-linecap="round"/>
<path d="M54.6855 232.581L60.9351 238.75" stroke="#16B166" stroke-width="1.86351" stroke-linecap="round"/>
<path d="M84.0166 209.774L88.4566 217.35" stroke="#16B166" stroke-width="1.86351" stroke-linecap="round"/>
<path d="M118.252 195.334L120.58 203.801" stroke="#16B166" stroke-width="1.86351" stroke-linecap="round"/>
<path d="M155.06 190.247L155.117 199.028" stroke="#16B166" stroke-width="1.86351" stroke-linecap="round"/>
<path d="M191.927 194.86L189.709 203.356" stroke="#16B166" stroke-width="1.86351" stroke-linecap="round"/>
<path d="M226.346 208.857L222.005 216.491" stroke="#16B166" stroke-width="1.86351" stroke-linecap="round"/>
<path d="M155.058 190.245L155.115 199.026" stroke="#16B166" stroke-width="1.86351" stroke-linecap="round"/>
<path d="M155.058 190.245L155.115 199.026" stroke="#16B166" stroke-width="1.86351" stroke-linecap="round"/>
<path d="M55.9844 433.863L62.1532 427.613" stroke="#1E1C20" stroke-width="1.86351" stroke-linecap="round"/>
<path d="M33.1768 404.532L40.7529 400.092" stroke="#1E1C20" stroke-width="1.86351" stroke-linecap="round"/>
<path d="M18.7363 370.298L27.2035 367.97" stroke="#1E1C20" stroke-width="1.86351" stroke-linecap="round"/>
<path d="M13.6484 333.492L22.4296 333.435" stroke="#1E1C20" stroke-width="1.86351" stroke-linecap="round"/>
<path d="M18.2617 296.625L26.7584 298.843" stroke="#16B166" stroke-width="1.86351" stroke-linecap="round"/>
<path d="M32.2578 262.207L39.8911 266.548" stroke="#16B166" stroke-width="1.86351" stroke-linecap="round"/>
<path d="M13.6494 333.492L22.4305 333.435" stroke="#1E1C20" stroke-width="1.86351" stroke-linecap="round"/>
<path d="M251.027 426.385L257.277 432.553" stroke="#1E1C20" stroke-width="1.86351" stroke-linecap="round"/>
<path d="M223.509 447.789L227.949 455.365" stroke="#1E1C20" stroke-width="1.86351" stroke-linecap="round"/>
<path d="M191.388 461.342L193.716 469.809" stroke="#1E1C20" stroke-width="1.86351" stroke-linecap="round"/>
<path d="M156.852 466.12L156.909 474.901" stroke="#1E1C20" stroke-width="1.86351" stroke-linecap="round"/>
<path d="M122.26 461.796L120.042 470.293" stroke="#1E1C20" stroke-width="1.86351" stroke-linecap="round"/>
<path d="M89.9629 448.667L85.6218 456.3" stroke="#1E1C20" stroke-width="1.86351" stroke-linecap="round"/>
<path d="M156.852 466.119L156.909 474.9" stroke="#1E1C20" stroke-width="1.86351" stroke-linecap="round"/>
<path d="M156.852 466.119L156.909 474.9" stroke="#1E1C20" stroke-width="1.86351" stroke-linecap="round"/>
<path d="M249.788 237.522L255.957 231.272" stroke="#16B166" stroke-width="1.86351" stroke-linecap="round"/>
<path d="M271.192 265.04L278.769 260.6" stroke="#16B166" stroke-width="1.86351" stroke-linecap="round"/>
<path d="M284.748 297.163L293.215 294.835" stroke="#16B166" stroke-width="1.86351" stroke-linecap="round"/>
<path d="M289.523 331.697L298.305 331.64" stroke="#16B166" stroke-width="1.86351" stroke-linecap="round"/>
<path d="M285.199 366.292L293.696 368.51" stroke="#16B166" stroke-width="1.86351" stroke-linecap="round"/>
<path d="M272.069 398.589L279.703 402.93" stroke="#1E1C20" stroke-width="1.86351" stroke-linecap="round"/>
<path d="M289.523 331.697L298.305 331.64" stroke="#16B166" stroke-width="1.86351" stroke-linecap="round"/>
<path d="M54.6855 232.581L60.9351 238.75" stroke="#16B166" stroke-width="1.86351" stroke-linecap="round"/>
<path d="M84.0166 209.774L88.4566 217.35" stroke="#16B166" stroke-width="1.86351" stroke-linecap="round"/>
<path d="M118.252 195.334L120.58 203.801" stroke="#16B166" stroke-width="1.86351" stroke-linecap="round"/>
<path d="M155.06 190.247L155.117 199.028" stroke="#16B166" stroke-width="1.86351" stroke-linecap="round"/>
<path d="M191.927 194.86L189.709 203.356" stroke="#16B166" stroke-width="1.86351" stroke-linecap="round"/>
<path d="M226.346 208.857L222.005 216.491" stroke="#16B166" stroke-width="1.86351" stroke-linecap="round"/>
<path d="M155.058 190.245L155.115 199.026" stroke="#16B166" stroke-width="1.86351" stroke-linecap="round"/>
<path d="M155.058 190.245L155.115 199.026" stroke="#16B166" stroke-width="1.86351" stroke-linecap="round"/>
<path d="M55.9844 433.863L62.1532 427.613" stroke="#1E1C20" stroke-width="1.86351" stroke-linecap="round"/>
<path d="M33.1768 404.532L40.7529 400.092" stroke="#1E1C20" stroke-width="1.86351" stroke-linecap="round"/>
<path d="M18.7363 370.298L27.2035 367.97" stroke="#1D2D20" stroke-width="1.86351" stroke-linecap="round"/>
<path d="M13.6484 333.492L22.4296 333.435" stroke="#1E1C20" stroke-width="1.86351" stroke-linecap="round"/>
<path d="M18.2617 296.625L26.7584 298.843" stroke="#16B166" stroke-width="1.86351" stroke-linecap="round"/>
<path d="M32.2578 262.207L39.8911 266.548" stroke="#16B166" stroke-width="1.86351" stroke-linecap="round"/>
<path d="M13.6494 333.492L22.4305 333.435" stroke="#2C854D" stroke-width="1.86351" stroke-linecap="round"/>
<path d="M251.027 426.385L257.277 432.553" stroke="#1E1C20" stroke-width="1.86351" stroke-linecap="round"/>
<path d="M223.509 447.789L227.949 455.365" stroke="#1E1C20" stroke-width="1.86351" stroke-linecap="round"/>
<path d="M191.388 461.342L193.716 469.809" stroke="#1E1C20" stroke-width="1.86351" stroke-linecap="round"/>
<path d="M156.852 466.12L156.909 474.901" stroke="#1E1C20" stroke-width="1.86351" stroke-linecap="round"/>
<path d="M122.26 461.796L120.042 470.293" stroke="#1E1C20" stroke-width="1.86351" stroke-linecap="round"/>
<path d="M89.9629 448.667L85.6218 456.3" stroke="#1E1C20" stroke-width="1.86351" stroke-linecap="round"/>
<path d="M156.852 466.119L156.909 474.9" stroke="#1E1C20" stroke-width="1.86351" stroke-linecap="round"/>
<path d="M156.852 466.119L156.909 474.9" stroke="#1E1C20" stroke-width="1.86351" stroke-linecap="round"/>
<path d="M249.788 237.522L255.957 231.272" stroke="#16B166" stroke-width="1.86351" stroke-linecap="round"/>
<path d="M271.192 265.04L278.769 260.6" stroke="#16B166" stroke-width="1.86351" stroke-linecap="round"/>
<path d="M284.748 297.163L293.215 294.835" stroke="#16B166" stroke-width="1.86351" stroke-linecap="round"/>
<path d="M289.523 331.697L298.305 331.64" stroke="#16B166" stroke-width="1.86351" stroke-linecap="round"/>
<path d="M285.199 366.292L293.696 368.51" stroke="#16B166" stroke-width="1.86351" stroke-linecap="round"/>
<path d="M272.069 398.589L279.703 402.93" stroke="#253C22" stroke-width="1.86351" stroke-linecap="round"/>
<path d="M289.523 331.697L298.305 331.64" stroke="#16B166" stroke-width="1.86351" stroke-linecap="round"/>
<path d="M42.5039 246.659L49.5052 251.959" stroke="#16B166" stroke-width="1.86351" stroke-linecap="round"/>
<path d="M68.6074 220.217L73.9984 227.149" stroke="#16B166" stroke-width="1.86351" stroke-linecap="round"/>
<path d="M100.665 201.433L104.078 209.524" stroke="#16B166" stroke-width="1.86351" stroke-linecap="round"/>
<path d="M136.491 191.586L137.694 200.284" stroke="#16B166" stroke-width="1.86351" stroke-linecap="round"/>
<path d="M173.646 191.346L172.557 200.06" stroke="#16B166" stroke-width="1.86351" stroke-linecap="round"/>
<path d="M209.598 200.731L206.29 208.866" stroke="#16B166" stroke-width="1.86351" stroke-linecap="round"/>
<path d="M136.49 191.584L137.693 200.282" stroke="#16B166" stroke-width="1.86351" stroke-linecap="round"/>
<path d="M136.49 191.584L137.693 200.282" stroke="#16B166" stroke-width="1.86351" stroke-linecap="round"/>
<path d="M70.0645 446.049L75.3647 439.048" stroke="#1E1C20" stroke-width="1.86351" stroke-linecap="round"/>
<path d="M43.623 419.946L50.5548 414.555" stroke="#1E1C20" stroke-width="1.86351" stroke-linecap="round"/>
<path d="M24.8379 387.89L32.9287 384.476" stroke="#1E1C20" stroke-width="1.86351" stroke-linecap="round"/>
<path d="M14.9902 352.063L23.6888 350.86" stroke="#1E1C20" stroke-width="1.86351" stroke-linecap="round"/>
<path d="M14.751 314.91L23.4644 315.999" stroke="#16B166" stroke-width="1.86351" stroke-linecap="round"/>
<path d="M24.1348 278.959L32.2693 282.267" stroke="#16B166" stroke-width="1.86351" stroke-linecap="round"/>
<path d="M14.9893 352.062L23.6878 350.859" stroke="#22682E" stroke-width="1.86351" stroke-linecap="round"/>
<path d="M262.461 413.177L269.462 418.477" stroke="#1D2D20" stroke-width="1.86351" stroke-linecap="round"/>
<path d="M237.972 437.99L243.363 444.922" stroke="#1E1C20" stroke-width="1.86351" stroke-linecap="round"/>
<path d="M207.895 455.619L211.308 463.71" stroke="#1E1C20" stroke-width="1.86351" stroke-linecap="round"/>
<path d="M174.277 464.864L175.48 473.562" stroke="#1E1C20" stroke-width="1.86351" stroke-linecap="round"/>
<path d="M139.416 465.093L138.326 473.806" stroke="#1E1C20" stroke-width="1.86351" stroke-linecap="round"/>
<path d="M105.682 456.291L102.374 464.425" stroke="#1E1C20" stroke-width="1.86351" stroke-linecap="round"/>
<path d="M174.277 464.863L175.48 473.562" stroke="#1E1C20" stroke-width="1.86351" stroke-linecap="round"/>
<path d="M174.277 464.863L175.48 473.562" stroke="#1E1C20" stroke-width="1.86351" stroke-linecap="round"/>
<path d="M236.581 226.091L241.881 219.09" stroke="#16B166" stroke-width="1.86351" stroke-linecap="round"/>
<path d="M261.394 250.581L268.325 245.19" stroke="#16B166" stroke-width="1.86351" stroke-linecap="round"/>
<path d="M279.025 280.659L287.116 277.246" stroke="#16B166" stroke-width="1.86351" stroke-linecap="round"/>
<path d="M288.269 314.274L296.967 313.071" stroke="#16B166" stroke-width="1.86351" stroke-linecap="round"/>
<path d="M288.496 349.137L297.21 350.227" stroke="#16B166" stroke-width="1.86351" stroke-linecap="round"/>
<path d="M279.695 382.872L287.83 386.179" stroke="#22682E" stroke-width="1.86351" stroke-linecap="round"/>
<path d="M288.269 314.274L296.967 313.071" stroke="#16B166" stroke-width="1.86351" stroke-linecap="round"/>
</g>
<rect x="0.308403" y="39.5439" width="411.836" height="513.398" rx="25.6233" transform="rotate(10.6368 0.308403 39.5439)" stroke="url(#paint2_linear_532_28410)" stroke-width="0.931756"/>
</g>
<defs>
<filter id="filter0_f_532_28410" x="-133.093" y="0.907078" width="576.798" height="657.867" filterUnits="userSpaceOnUse" color-interpolation-filters="sRGB">
<feFlood flood-opacity="0" result="BackgroundImageFix"/>
<feBlend mode="normal" in="SourceGraphic" in2="BackgroundImageFix" result="shape"/>
<feGaussianBlur stdDeviation="19.0465" result="effect1_foregroundBlur_532_28410"/>
</filter>
<filter id="filter1_dd_532_28410" x="60.6476" y="237.156" width="190.291" height="204.267" filterUnits="userSpaceOnUse" color-interpolation-filters="sRGB">
<feFlood flood-opacity="0" result="BackgroundImageFix"/>
<feColorMatrix in="SourceAlpha" type="matrix" values="0 0 0 0 0 0 0 0 0 0 0 0 0 0 0 0 0 0 127 0" result="hardAlpha"/>
<feOffset/>
<feGaussianBlur stdDeviation="6.42912"/>
<feComposite in2="hardAlpha" operator="out"/>
<feColorMatrix type="matrix" values="0 0 0 0 0 0 0 0 0 0 0 0 0 0 0 0 0 0 0.4 0"/>
<feBlend mode="normal" in2="BackgroundImageFix" result="effect1_dropShadow_532_28410"/>
<feColorMatrix in="SourceAlpha" type="matrix" values="0 0 0 0 0 0 0 0 0 0 0 0 0 0 0 0 0 0 127 0" result="hardAlpha"/>
<feOffset dy="13.9763"/>
<feGaussianBlur stdDeviation="6.42912"/>
<feComposite in2="hardAlpha" operator="out"/>
<feColorMatrix type="matrix" values="0 0 0 0 0.253672 0 0 0 0 0.5117 0 0 0 0 0.143089 0 0 0 0.4 0"/>
<feBlend mode="normal" in2="effect1_dropShadow_532_28410" result="effect2_dropShadow_532_28410"/>
<feBlend mode="normal" in="SourceGraphic" in2="effect2_dropShadow_532_28410" result="shape"/>
</filter>
<filter id="filter2_f_532_28410" x="-200.557" y="-319.969" width="487.402" height="618.557" filterUnits="userSpaceOnUse" color-interpolation-filters="sRGB">
<feFlood flood-opacity="0" result="BackgroundImageFix"/>
<feBlend mode="normal" in="SourceGraphic" in2="BackgroundImageFix" result="shape"/>
<feGaussianBlur stdDeviation="93.1756" result="effect1_foregroundBlur_532_28410"/>
</filter>
<linearGradient id="paint0_linear_532_28410" x1="184.43" y1="166.767" x2="184.43" y2="447.226" gradientUnits="userSpaceOnUse">
<stop stop-color="#08B651"/>
<stop offset="0.625" stop-color="#31A88D"/>
</linearGradient>
<linearGradient id="paint1_linear_532_28410" x1="236.54" y1="-97.6406" x2="75.0454" y2="762.245" gradientUnits="userSpaceOnUse">
<stop offset="0.701834" stop-color="#09100B"/>
<stop offset="0.922261" stop-color="#1F7863"/>
</linearGradient>
<linearGradient id="paint2_linear_532_28410" x1="48.0619" y1="220.908" x2="403.375" y2="189.244" gradientUnits="userSpaceOnUse">
<stop stop-color="white" stop-opacity="0"/>
<stop offset="0.132557" stop-color="white" stop-opacity="0.3"/>
<stop offset="0.293727" stop-color="white" stop-opacity="0"/>
<stop offset="0.63126" stop-color="white" stop-opacity="0"/>
<stop offset="0.84911" stop-color="white" stop-opacity="0.2"/>
<stop offset="1" stop-color="white" stop-opacity="0"/>
</linearGradient>
<clipPath id="clip0_532_28410">
<rect x="-0.0634766" y="39" width="412.768" height="514.33" rx="26.0892" transform="rotate(10.6368 -0.0634766 39)" fill="white"/>
</clipPath>
<clipPath id="clip1_532_28410">
<rect width="40.9973" height="40.9973" fill="white" transform="translate(142.153 291.345) rotate(10.6368)"/>
</clipPath>
</defs>
</svg>
