<svg width="41" height="41" viewBox="0 0 41 41" fill="none" xmlns="http://www.w3.org/2000/svg">
<path d="M18.0952 0.11582C23.2591 -0.438638 28.4385 1.0116 32.5639 4.1666C36.6895 7.32177 39.4458 11.9408 40.2631 17.0699C41.0805 22.1989 39.897 27.446 36.9565 31.7271C35.0504 34.5023 32.5005 36.7342 29.5585 38.2547C27.0751 39.5382 24.4624 37.4428 24.4624 34.6473C24.4624 32.5707 25.9489 30.765 28.0047 31.0577C30.3559 31.3924 32.2251 32.0058 33.8715 29.609C36.2689 26.1186 37.2342 21.8404 36.5678 17.6588C35.9015 13.4774 33.6547 9.71155 30.2915 7.13926C26.928 4.56698 22.7047 3.38446 18.4946 3.83652C14.2844 4.28866 10.409 6.3411 7.66842 9.56894C4.92784 12.7968 3.53132 16.9535 3.76803 21.1812C4.00475 25.4089 5.85623 29.384 8.9399 32.2857C12.3408 35.4858 16.8706 32.0345 16.8706 27.3648V22.4698C16.8706 21.1029 17.9787 19.9947 19.3457 19.9947C20.7126 19.9947 21.8208 21.1029 21.8208 22.4698V40.3897C21.8208 40.4641 21.7571 40.5225 21.6831 40.5162H20.1674C20.1669 40.5162 20.1665 40.5158 20.1665 40.5152C20.1665 40.5147 20.166 40.5143 20.1655 40.5143C15.0403 40.4909 10.1115 38.5268 6.37545 35.0113C2.59295 31.4521 0.322064 26.5759 0.0316999 21.3902C-0.258587 16.2046 1.45338 11.1053 4.8149 7.14609C8.17648 3.18688 12.9311 0.6704 18.0952 0.11582ZM19.563 10.4557C21.8391 10.5713 23.6489 12.4535 23.6489 14.7584L23.644 14.9801C23.5285 17.2562 21.646 19.0658 19.3413 19.066L19.1196 19.0611C16.9166 18.9496 15.1504 17.183 15.0385 14.9801L15.0327 14.7584C15.0327 12.379 16.9619 10.4498 19.3413 10.4498L19.563 10.4557ZM19.3413 12.8336C18.2781 12.8336 17.4165 13.6953 17.4165 14.7584C17.4166 15.8214 18.2782 16.6832 19.3413 16.6832C20.4041 16.683 21.2659 15.8212 21.2661 14.7584C21.2661 13.6954 20.4042 12.8338 19.3413 12.8336Z" fill="#EBF9FF"/>
</svg>
