<svg width="114" height="114" viewBox="0 0 114 114" fill="none" xmlns="http://www.w3.org/2000/svg">
<rect x="0.5" y="0.5" width="112.43" height="112.43" rx="47.5215" stroke="white" stroke-dasharray="19.87 19.87"/>
<rect x="8.27954" y="8.69354" width="96.043" height="96.043" rx="48.0215" fill="white"/>
<g clip-path="url(#clip0_1044_30662)">
<path d="M54.3823 36.0921C54.3823 34.9029 55.339 33.9462 56.5281 33.9462C57.7173 33.9462 58.674 34.9029 58.674 36.0921V39.6686H63.6811C65.2637 39.6686 66.5423 40.9472 66.5423 42.5298C66.5423 44.1124 65.2637 45.3909 63.6811 45.3909H53.4077C51.1813 45.3909 49.3752 47.1971 49.3752 49.4234C49.3752 51.4352 50.8505 53.134 52.8354 53.4201L61.0256 54.5914C65.8359 55.2799 69.4035 59.3928 69.4035 64.2479C69.4035 69.6395 65.0312 74.0028 59.6486 74.0028H58.674V77.5792C58.674 78.7684 57.7173 79.7251 56.5281 79.7251C55.339 79.7251 54.3823 78.7684 54.3823 77.5792V74.0028H47.9446C46.362 74.0028 45.0834 72.7242 45.0834 71.1416C45.0834 69.559 46.362 68.2804 47.9446 68.2804H59.6486C61.875 68.2804 63.6811 66.4743 63.6811 64.2479C63.6811 62.2361 62.2058 60.5373 60.2209 60.2512L52.0307 59.0799C47.2204 58.4004 43.6528 54.2785 43.6528 49.4234C43.6528 44.0408 48.0251 39.6686 53.4077 39.6686H54.3823V36.0921Z" fill="#0B0B0B"/>
</g>
<defs>
<clipPath id="clip0_1044_30662">
<rect width="28.6118" height="45.7789" fill="white" transform="translate(42.2241 33.9462)"/>
</clipPath>
</defs>
</svg>
