<svg width="115" height="114" viewBox="0 0 115 114" fill="none" xmlns="http://www.w3.org/2000/svg">
<rect x="1.22925" y="0.5" width="112.43" height="112.43" rx="47.5215" stroke="white" stroke-dasharray="19.87 19.87"/>
<rect x="9.00879" y="8.69354" width="96.043" height="96.043" rx="48.0215" fill="#03040D"/>
<path fill-rule="evenodd" clip-rule="evenodd" d="M31.8104 42.8268C31.8104 38.1355 31.8104 35.7923 33.2681 34.3347C34.7257 32.877 37.0689 32.877 41.7602 32.877H71.6095C76.3009 32.877 78.644 32.877 80.1017 34.3347C81.5593 35.7923 81.5593 38.1355 81.5593 42.8268C81.5593 47.5181 81.5593 49.8613 80.1017 51.319C78.644 52.7766 76.3009 52.7766 71.6095 52.7766H41.7602C37.0689 52.7766 34.7257 52.7766 33.2681 51.319C31.8104 49.8613 31.8104 47.5181 31.8104 42.8268ZM41.7602 40.9612C41.2654 40.9612 40.7909 41.1578 40.441 41.5077C40.0912 41.8575 39.8946 42.332 39.8946 42.8268C39.8946 43.3216 40.0912 43.7961 40.441 44.146C40.7909 44.4959 41.2654 44.6924 41.7602 44.6924H46.7351C47.2299 44.6924 47.7044 44.4959 48.0543 44.146C48.4041 43.7961 48.6007 43.3216 48.6007 42.8268C48.6007 42.332 48.4041 41.8575 48.0543 41.5077C47.7044 41.1578 47.2299 40.9612 46.7351 40.9612H41.7602ZM52.3318 42.8268C52.3318 42.332 52.5284 41.8575 52.8783 41.5077C53.2281 41.1578 53.7026 40.9612 54.1974 40.9612H71.6095C72.1043 40.9612 72.5788 41.1578 72.9287 41.5077C73.2786 41.8575 73.4751 42.332 73.4751 42.8268C73.4751 43.3216 73.2786 43.7961 72.9287 44.146C72.5788 44.4959 72.1043 44.6924 71.6095 44.6924H54.1974C53.7026 44.6924 53.2281 44.4959 52.8783 44.146C52.5284 43.7961 52.3318 43.3216 52.3318 42.8268ZM31.8104 67.7013C31.8104 63.01 31.8104 60.6668 33.2681 59.2091C34.7257 57.7515 37.0689 57.7515 41.7602 57.7515H71.6095C76.3009 57.7515 78.644 57.7515 80.1017 59.2091C81.5593 60.6668 81.5593 63.01 81.5593 67.7013C81.5593 72.3926 81.5593 74.7358 80.1017 76.1934C78.644 77.6511 76.3009 77.6511 71.6095 77.6511H41.7602C37.0689 77.6511 34.7257 77.6511 33.2681 76.1934C31.8104 74.7358 31.8104 72.3926 31.8104 67.7013ZM41.7602 65.8357C41.2654 65.8357 40.7909 66.0322 40.441 66.3821C40.0912 66.732 39.8946 67.2065 39.8946 67.7013C39.8946 68.1961 40.0912 68.6706 40.441 69.0204C40.7909 69.3703 41.2654 69.5669 41.7602 69.5669H46.7351C47.2299 69.5669 47.7044 69.3703 48.0543 69.0204C48.4041 68.6706 48.6007 68.1961 48.6007 67.7013C48.6007 67.2065 48.4041 66.732 48.0543 66.3821C47.7044 66.0322 47.2299 65.8357 46.7351 65.8357H41.7602ZM52.3318 67.7013C52.3318 67.2065 52.5284 66.732 52.8783 66.3821C53.2281 66.0322 53.7026 65.8357 54.1974 65.8357H71.6095C72.1043 65.8357 72.5788 66.0322 72.9287 66.3821C73.2786 66.732 73.4751 67.2065 73.4751 67.7013C73.4751 68.1961 73.2786 68.6706 72.9287 69.0204C72.5788 69.3703 72.1043 69.5669 71.6095 69.5669H54.1974C53.7026 69.5669 53.2281 69.3703 52.8783 69.0204C52.5284 68.6706 52.3318 68.1961 52.3318 67.7013Z" fill="white"/>
</svg>
