<svg width="192" height="235" viewBox="0 0 192 235" fill="none" xmlns="http://www.w3.org/2000/svg">
<path d="M151.5 68.1655V114.009C151.5 115.251 151.25 116.48 150.764 117.624C150.279 118.767 149.568 119.801 148.674 120.664C147.78 121.526 146.722 122.2 145.562 122.645C144.402 123.09 143.165 123.296 141.923 123.252L141.103 123.185L96 117.548V68.1655H151.5ZM83.6667 68.1655V116.007L51.304 111.961C48.3206 111.588 45.5761 110.139 43.5866 107.884C41.597 105.63 40.4993 102.727 40.5 99.7204V68.1655H83.6667ZM141.103 0.81317C142.336 0.659189 143.587 0.755032 144.781 1.09498C145.976 1.43493 147.09 2.01203 148.057 2.79184C149.024 3.57165 149.824 4.53821 150.409 5.63385C150.994 6.7295 151.353 7.93179 151.463 9.169L151.5 9.98917V55.8322H96V6.4495L141.103 0.81317ZM83.6667 7.99117V55.8322H40.5V24.2773C40.4993 21.2707 41.597 18.3674 43.5866 16.1133C45.5761 13.8591 48.3206 12.4093 51.304 12.0365L83.6667 7.99117Z" fill="#374EFF"/>
<path d="M7.53727 227.258L1.14727 205.778H3.39727L7.74727 220.538C8.04727 221.588 8.31727 222.668 8.58727 224.078C8.94727 222.518 9.24727 221.588 9.57727 220.538L14.2573 205.778H16.5073L21.1873 220.538C21.5173 221.618 21.8173 222.698 22.1473 224.078C22.4773 222.428 22.7473 221.378 22.9873 220.568L27.4273 205.778H29.6173L23.1673 227.258H21.1273L15.3673 209.018L9.60727 227.258H7.53727ZM33.2327 208.748C32.3927 208.748 31.7027 208.058 31.7027 207.218C31.7027 206.378 32.3927 205.658 33.2327 205.658C34.0727 205.658 34.7927 206.378 34.7927 207.218C34.7927 208.058 34.0727 208.748 33.2327 208.748ZM32.2127 227.258V212.738H34.2827V227.258H32.2127ZM40.6695 227.258H38.5995V212.738H40.3995L40.6995 215.258C41.6595 213.398 43.5795 212.348 45.6795 212.348C49.6695 212.348 51.3195 214.718 51.3195 218.378V227.258H49.2495V218.828C49.2495 215.438 47.7195 214.238 45.3195 214.238C42.3495 214.238 40.6695 216.398 40.6695 219.668V227.258ZM61.1452 227.618C56.9152 227.618 54.4252 224.378 54.4252 220.028C54.4252 215.648 56.9152 212.348 61.2352 212.348C63.6352 212.348 65.5552 213.398 66.5752 215.498V205.388H68.6452V227.258H66.8452L66.6352 224.288C65.6152 226.538 63.5752 227.618 61.1452 227.618ZM61.5052 225.728C64.6852 225.728 66.5452 223.328 66.5452 219.968C66.5452 216.638 64.6852 214.208 61.5052 214.208C58.3552 214.208 56.5252 216.638 56.5252 219.968C56.5252 223.328 58.3552 225.728 61.5052 225.728ZM71.9447 219.998C71.9447 215.558 75.0647 212.348 79.3247 212.348C83.5847 212.348 86.7047 215.558 86.7047 219.998C86.7047 224.408 83.5847 227.618 79.3247 227.618C75.0647 227.618 71.9447 224.408 71.9447 219.998ZM74.0447 219.968C74.0447 223.388 76.2047 225.758 79.3247 225.758C82.4147 225.758 84.6047 223.388 84.6047 219.968C84.6047 216.608 82.4147 214.208 79.3247 214.208C76.2047 214.208 74.0447 216.608 74.0447 219.968ZM92.4309 227.258L87.6309 212.738H89.7609L92.6109 221.498C92.9409 222.458 93.2109 223.448 93.5109 224.618C93.7509 223.448 94.2309 221.978 94.3809 221.498L97.2609 212.738H99.3909L102.241 221.498C102.511 222.278 102.871 223.538 103.141 224.618C103.441 223.418 103.501 223.058 104.011 221.498L106.891 212.738H109.051L104.131 227.258H102.121L99.1209 218.138C98.7609 217.058 98.5209 216.158 98.3409 215.288C98.1309 216.068 97.8909 216.938 97.5009 218.138L94.5009 227.258H92.4309ZM110.319 223.178H112.299C112.299 224.858 113.559 225.908 115.599 225.908C117.849 225.908 119.169 224.948 119.169 223.388C119.169 222.188 118.569 221.498 116.859 221.078L114.369 220.448C111.849 219.818 110.619 218.498 110.619 216.518C110.619 213.968 112.749 212.348 115.869 212.348C118.929 212.348 120.909 214.028 120.999 216.728H118.989C118.929 215.048 117.759 214.058 115.809 214.058C113.769 214.058 112.629 214.928 112.629 216.488C112.629 217.598 113.409 218.378 114.999 218.768L117.489 219.398C120.009 220.028 121.149 221.198 121.149 223.298C121.149 225.908 118.929 227.618 115.629 227.618C112.359 227.618 110.319 225.878 110.319 223.178ZM152.467 216.518C152.467 223.028 148.237 227.618 142.237 227.618C136.207 227.618 132.007 223.028 132.007 216.518C132.007 210.008 136.237 205.388 142.237 205.388C148.267 205.388 152.467 209.978 152.467 216.518ZM150.247 216.518C150.247 211.148 146.977 207.488 142.237 207.488C137.497 207.488 134.257 211.148 134.257 216.518C134.257 221.888 137.497 225.548 142.237 225.548C146.977 225.548 150.247 221.858 150.247 216.518ZM158.003 227.258H155.933V212.738H157.733L158.033 215.258C158.993 213.398 160.913 212.348 163.013 212.348C167.003 212.348 168.653 214.718 168.653 218.378V227.258H166.583V218.828C166.583 215.438 165.053 214.238 162.653 214.238C159.683 214.238 158.003 216.398 158.003 219.668V227.258ZM174.939 227.258H172.869V205.388H174.939V227.258ZM177.872 233.588V231.878H179.462C180.722 231.878 181.982 231.788 182.702 229.838L183.332 228.128L177.452 212.738H179.642L184.322 225.398L188.912 212.738H191.042L184.382 230.588C183.542 232.868 182.132 233.798 180.062 233.798C179.192 233.798 178.532 233.738 177.872 233.588Z" fill="white"/>
</svg>
